name analog
datacolumns 19
datarows 55
range 0.23500000000000001 0.262
endheader
time	ground_force_vx	ground_force_vy	ground_force_vz	ground_force_px	ground_force_py	ground_force_pz	l_ground_force_vx	l_ground_force_vy	l_ground_force_vz	l_ground_force_px	l_ground_force_py	l_ground_force_pz	ground_torque_x	ground_torque_y	ground_torque_z	l_ground_torque_x	l_ground_torque_y	l_ground_torque_z
0.23500000000000001	-0.0	-0.0	-0.0	-3.7344586849212646	17.623075485229492	-355.4460754394531	4.1319966316223145	-19.336240768432617	-369.12689208984375	-0.0	-0.0	-0.0	-0.0	-0.0	-0.0	102135.2890625	-21849.55859375	-2633.732421875
0.23550000000000001	-0.0	-0.0	-0.0	-3.996015310287476	17.398868560791016	-357.6738586425781	3.624749422073364	-19.001501083374023	-370.1982727050781	-0.0	-0.0	-0.0	-0.0	-0.0	-0.0	102183.5859375	-21852.904296875	-2519.5478515625
0.23600000000000002	-0.0	-0.0	-0.0	-3.5867648124694824	17.700294494628906	-356.78436279296875	3.7258529663085938	-18.888578414916992	-368.1512451171875	-0.0	-0.0	-0.0	-0.0	-0.0	-0.0	102251.1015625	-21893.986328125	-2466.32275390625
0.23650000000000002	-0.0	-0.0	-0.0	-3.491391658782959	17.635648727416992	-356.1259460449219	3.738115072250366	-19.32413673400879	-368.47564697265625	-0.0	-0.0	-0.0	-0.0	-0.0	-0.0	102468.8828125	-21855.28515625	-2464.364990234375
0.23700000000000002	-0.0	-0.0	-0.0	-3.3128931522369385	17.048093795776367	-356.12518310546875	3.465813159942627	-19.089614868164062	-369.7515869140625	-0.0	-0.0	-0.0	-0.0	-0.0	-0.0	102324.78125	-21545.005859375	-2490.088623046875
0.23750000000000002	-0.0	-0.0	-0.0	-3.389999389648437	17.309322357177734	-357.112548828125	3.8972206115722656	-18.659984588623047	-370.49755859375	-0.0	-0.0	-0.0	-0.0	-0.0	-0.0	102385.6015625	-21675.525390625	-2572.617431640625
0.23800000000000002	-0.0	-0.0	-0.0	-3.3540799617767334	17.75430679321289	-357.0175476074219	3.8386893272399902	-19.324434280395508	-371.4498291015625	-0.0	-0.0	-0.0	-0.0	-0.0	-0.0	102541.515625	-21814.654296875	-2472.361083984375
0.23850000000000002	-0.0	-0.0	-0.0	-3.211578369140625	17.36854362487793	-357.6064758300781	4.252124786376953	-18.736129760742188	-371.7521362304688	-0.0	-0.0	-0.0	-0.0	-0.0	-0.0	102509.1796875	-21725.5859375	-2489.506591796875
0.23900000000000002	-0.0	-0.0	-0.0	-3.389999389648437	17.12484359741211	-357.2052917480469	3.637142181396485	-18.89491271972656	-370.7990112304688	-0.0	-0.0	-0.0	-0.0	-0.0	-0.0	102745.875	-21864.4140625	-2375.3359375
0.23950000000000002	-0.0	-0.0	-0.0	-3.6693952083587646	17.52930450439453	-358.0080261230469	4.157551765441895	-18.8890380859375	-369.4257507324219	-0.0	-0.0	-0.0	-0.0	-0.0	-0.0	102507.1015625	-21735.20703125	-2369.017822265625
0.24	-0.0	-0.0	-0.0	-3.389999389648437	17.5528507232666	-357.7250366210937	4.080696105957031	-18.983299255371094	-371.42779541015625	-0.0	-0.0	-0.0	-0.0	-0.0	-0.0	102579.7890625	-21832.046875	-2572.844970703125
0.2405	-0.0	-0.0	-0.0	-3.5452027320861816	17.331892013549805	-358.8078308105469	3.826264142990112	-18.812519073486328	-369.4714965820313	-0.0	-0.0	-0.0	-0.0	-0.0	-0.0	102322.3203125	-21904.859375	-2355.297607421875
0.241	-0.0	-0.0	-0.0	-3.634521484375	17.624731063842773	-361.14300537109375	4.051579475402832	-18.88924598693848	-368.40081787109375	-0.0	-0.0	-0.0	-0.0	-0.0	-0.0	102189.375	-21667.673828125	-2373.09228515625
0.2415	-0.0	-0.0	-0.0	-3.8016207218170166	16.951976776123047	-359.0931396484375	4.069126605987549	-18.64739418029785	-368.7268676757813	-0.0	-0.0	-0.0	-0.0	-0.0	-0.0	102105.8671875	-21818.404296875	-2463.957763671875
0.242	-0.0	-0.0	-0.0	-3.925262451171875	17.202167510986328	-360.9498901367188	3.891782283782959	-18.8893985748291	-367.9831848144531	-0.0	-0.0	-0.0	-0.0	-0.0	-0.0	102114.4140625	-21622.263671875	-2466.06689453125
0.2425	-0.0	-0.0	-0.0	-3.8360519409179688	17.3139705657959	-359.957763671875	4.152247905731201	-18.71850204467773	-367.7242126464844	-0.0	-0.0	-0.0	-0.0	-0.0	-0.0	101836.4453125	-21499.083984375	-2471.567138671875
0.243	-0.0	-0.0	-0.0	-3.796612739562988	17.308185577392578	-359.0092468261719	3.7258529663085938	-18.47620010375977	-365.9555969238281	-0.0	-0.0	-0.0	-0.0	-0.0	-0.0	101813.3671875	-21388.08984375	-2495.72216796875
0.2435	-0.0	-0.0	-0.0	-3.479209899902344	17.486330032348633	-360.0011291503906	3.642784595489502	-18.128416061401367	-365.67279052734375	-0.0	-0.0	-0.0	-0.0	-0.0	-0.0	101505.921875	-21298.685546875	-2551.234375
0.244	-0.0	-0.0	-0.0	-3.484767198562622	17.75360679626465	-361.458251953125	3.4597206115722656	-18.051103591918945	-366.7415466308594	-0.0	-0.0	-0.0	-0.0	-0.0	-0.0	101539.0390625	-21471.951171875	-2671.88818359375
0.2445	-0.0	-0.0	-0.0	-3.479209899902344	17.893110275268555	-358.8526916503906	3.6259877681732178	-18.310352325439453	-367.3294372558594	-0.0	-0.0	-0.0	-0.0	-0.0	-0.0	101434.203125	-21186.37890625	-2664.375732421875
0.245	-0.0	-0.0	-0.0	-3.56842041015625	17.79865074157715	-358.96124267578125	3.731391668319702	-18.53652572631836	-367.9403991699219	-0.0	-0.0	-0.0	-0.0	-0.0	-0.0	101694.6484375	-21336.6484375	-2553.162109375
0.2455	-0.0	-0.0	-0.0	-3.8980016708374015	17.731502532958984	-360.2219543457031	3.814563751220703	-18.878936767578125	-365.9974670410156	-0.0	-0.0	-0.0	-0.0	-0.0	-0.0	101505.984375	-21328.962890625	-2614.35693359375
0.246	-0.0	-0.0	-0.0	-3.657630920410156	17.626121520996094	-359.1625366210937	3.68751072883606	-18.641328811645508	-365.2557067871094	-0.0	-0.0	-0.0	-0.0	-0.0	-0.0	101264.9765625	-21270.8515625	-2584.71533203125
0.2465	-0.0	-0.0	-0.0	-3.846833229064941	17.726179122924805	-359.7623291015625	3.709536552429199	-18.36549568176269	-365.6045837402344	-0.0	-0.0	-0.0	-0.0	-0.0	-0.0	101671.453125	-21225.73828125	-2708.72900390625
0.247	-0.0	-0.0	-0.0	-3.5898277759552	17.961565017700195	-360.4908142089844	3.1372785568237305	-18.21577262878418	-366.6091918945313	-0.0	-0.0	-0.0	-0.0	-0.0	-0.0	101234.03125	-21435.185546875	-2705.434814453125
0.2475	-0.0	-0.0	-0.0	-3.5005102157592773	17.763551712036133	-361.155517578125	3.4543468952178955	-18.5636043548584	-366.5457458496094	-0.0	-0.0	-0.0	-0.0	-0.0	-0.0	101249.140625	-21294.259765625	-2679.20947265625
0.248	-0.0	-0.0	-0.0	-3.316647529602051	18.496871948242188	-359.2886657714844	3.6991779804229736	-18.54755401611328	-365.2965698242188	-0.0	-0.0	-0.0	-0.0	-0.0	-0.0	101619.5625	-21270.568359375	-2671.843994140625
0.2485	-0.0	-0.0	-0.0	-3.941004514694214	17.474802017211914	-360.9498901367188	3.1154701709747314	-18.651695251464844	-366.2600708007813	-0.0	-0.0	-0.0	-0.0	-0.0	-0.0	101401.4375	-21320.068359375	-2799.796875
0.249	-0.0	-0.0	-0.0	-3.678513765335083	18.66000747680664	-360.3055419921875	3.172508955001831	-18.55280113220215	-365.58251953125	-0.0	-0.0	-0.0	-0.0	-0.0	-0.0	101119.515625	-21296.333984375	-2785.589111328125
0.2495	-0.0	-0.0	-0.0	-4.172166347503662	18.025049209594727	-363.0279541015625	3.000473022460937	-18.37611961364746	-367.2251281738281	-0.0	-0.0	-0.0	-0.0	-0.0	-0.0	101192.390625	-21377.44921875	-2705.45947265625
0.25	-0.0	-0.0	-0.0	-4.312962532043457	18.240901947021484	-362.3829650878906	3.010974168777466	-18.209775924682617	-365.910888671875	-0.0	-0.0	-0.0	-0.0	-0.0	-0.0	101287.015625	-21158.158203125	-2899.1416015625
0.2505	-0.0	-0.0	-0.0	-4.4298295974731445	18.429548263549805	-361.7980346679688	2.9274559020996094	-18.2199821472168	-365.910888671875	-0.0	-0.0	-0.0	-0.0	-0.0	-0.0	101279.8671875	-21429.875	-2656.46435546875
0.251	-0.0	-0.0	-0.0	-4.103683471679688	18.292022705078125	-363.2814636230469	3.1151316165924072	-18.391328811645508	-365.2327575683594	-0.0	-0.0	-0.0	-0.0	-0.0	-0.0	101506.015625	-21268.787109375	-2797.733642578125
0.2515	-0.0	-0.0	-0.0	-4.450448989868164	18.009374618530273	-362.46234130859375	2.833656549453736	-18.729263305664062	-366.9183044433594	-0.0	-0.0	-0.0	-0.0	-0.0	-0.0	101510.6328125	-21277.173828125	-2825.930419921875
0.252	-0.0	-0.0	-0.0	-3.707634687423706	18.157623291015625	-363.0491638183594	2.671425104141236	-18.890783309936523	-366.549560546875	-0.0	-0.0	-0.0	-0.0	-0.0	-0.0	101196.75	-21231.35546875	-2824.35986328125
0.2525	-0.0	-0.0	-0.0	-4.014472961425781	18.019256591796875	-365.0501403808594	2.6512694358825684	-18.96413803100586	-365.2521667480469	-0.0	-0.0	-0.0	-0.0	-0.0	-0.0	101460.171875	-21171.298828125	-2990.59423828125
0.253	-0.0	-0.0	-0.0	-3.6872575283050537	17.677419662475586	-364.5207824707031	2.582589626312256	-18.714263916015625	-366.2207946777344	-0.0	-0.0	-0.0	-0.0	-0.0	-0.0	101435.875	-21294.439453125	-2827.6728515625
0.2535	-0.0	-0.0	-0.0	-4.118380069732666	18.261943817138672	-365.5218505859375	2.7599339485168457	-18.704484939575195	-365.2515563964844	-0.0	-0.0	-0.0	-0.0	-0.0	-0.0	101442.0703125	-21165.240234375	-2906.5537109375
0.254	-0.0	-0.0	-0.0	-4.5253753662109375	18.425655364990234	-364.71917724609375	2.833822011947632	-18.891036987304688	-366.2019348144531	-0.0	-0.0	-0.0	-0.0	-0.0	-0.0	101255.0078125	-21164.123046875	-2825.805419921875
0.2545	-0.0	-0.0	-0.0	-4.108516693115234	18.33671760559082	-364.09027099609375	2.764688014984131	-18.552417755126957	-366.919921875	-0.0	-0.0	-0.0	-0.0	-0.0	-0.0	101537.8046875	-21271.244140625	-2875.2578125
0.255	-0.0	-0.0	-0.0	-4.802984237670898	17.840450286865234	-364.4437255859375	3.26776123046875	-18.87671661376953	-365.8536682128906	-0.0	-0.0	-0.0	-0.0	-0.0	-0.0	101187.9609375	-21320.98828125	-2762.8466796875
0.2555	-0.0	-0.0	-0.0	-4.9671831130981445	17.75600242614746	-364.14739990234375	2.685419797897339	-18.29698371887207	-365.2505187988281	-0.0	-0.0	-0.0	-0.0	-0.0	-0.0	101349.9296875	-21178.75390625	-2703.77685546875
0.256	-0.0	-0.0	-0.0	-4.4605255126953125	18.248109817504883	-364.537841796875	3.0161666870117188	-18.747995376586918	-364.57073974609375	-0.0	-0.0	-0.0	-0.0	-0.0	-0.0	101179.921875	-21322.515625	-2711.635986328125
0.2565	-0.0	-0.0	-0.0	-5.066239356994629	18.19665908813477	-364.2028198242188	2.8387451171875	-18.56643867492676	-363.9466247558594	-0.0	-0.0	-0.0	-0.0	-0.0	-0.0	101040.9375	-21271.19921875	-2791.11669921875
0.257	-0.0	-0.0	-0.0	-4.3619890213012695	17.93384552001953	-361.7116394042969	2.9133100509643555	-18.3756046295166	-364.8263549804688	-0.0	-0.0	-0.0	-0.0	-0.0	-0.0	101034.4921875	-21227.25390625	-2794.168701171875
0.2575	-0.0	-0.0	-0.0	-5.240299224853516	18.35162353515625	-362.02777099609375	2.782771110534668	-18.60793876647949	-365.17578125	-0.0	-0.0	-0.0	-0.0	-0.0	-0.0	100710.4765625	-21215.857421875	-2786.475341796875
0.258	-0.0	-0.0	-0.0	-4.72357177734375	18.271732330322266	-364.5361633300781	3.2121403217315674	-18.1290340423584	-363.85247802734375	-0.0	-0.0	-0.0	-0.0	-0.0	-0.0	100947.125	-21238.48046875	-2846.96630859375
0.2585	-0.0	-0.0	-0.0	-4.723598480224609	17.501440048217773	-364.0744018554688	2.754645824432373	-18.45464134216309	-363.11767578125	-0.0	-0.0	-0.0	-0.0	-0.0	-0.0	100756.2734375	-21374.34765625	-2852.01806640625
0.259	-0.0	-0.0	-0.0	-4.366795063018799	17.99982452392578	-363.1047668457031	2.825026512145996	-18.212478637695312	-362.4373779296875	-0.0	-0.0	-0.0	-0.0	-0.0	-0.0	100255.1796875	-21147.11328125	-2848.83544921875
0.2595	-0.0	-0.0	-0.0	-4.879692554473877	17.99538803100586	-364.481689453125	2.922921657562256	-18.37091064453125	-363.8159790039063	-0.0	-0.0	-0.0	-0.0	-0.0	-0.0	100616.90625	-21042.9453125	-2854.8837890625
0.26	-0.0	-0.0	-0.0	-3.853822708129883	18.369739532470703	-363.4749450683594	3.0958850383758545	-18.348527908325195	-362.1410217285156	-0.0	-0.0	-0.0	-0.0	-0.0	-0.0	100568.640625	-21196.484375	-2847.19970703125
0.2605	-0.0	-0.0	-0.0	-3.925262451171875	17.839313507080078	-367.5030212402344	2.9587385654449463	-18.445884704589844	-364.8106994628906	-0.0	-0.0	-0.0	-0.0	-0.0	-0.0	100826.65625	-21369.1484375	-2823.653564453125
0.261	-0.0	-0.0	-0.0	-3.411881446838379	18.43250274658203	-367.2724914550781	3.0161666870117188	-18.225143432617188	-364.8285827636719	-0.0	-0.0	-0.0	-0.0	-0.0	-0.0	100877.234375	-21435.888671875	-2770.12841796875
0.2615	-0.0	-0.0	-0.0	-3.555407762527466	18.356529235839844	-369.0387268066406	3.5352563858032227	-18.715452194213867	-364.8634643554688	-0.0	-0.0	-0.0	-0.0	-0.0	-0.0	101122.1171875	-21287.9765625	-2934.57373046875
0.262	-0.0	-0.0	-0.0	-3.211578369140625	18.60238647460937	-371.2604675292969	3.029274702072144	-18.79511833190918	-367.8854064941406	-0.0	-0.0	-0.0	-0.0	-0.0	-0.0	101567.984375	-21608.943359375	-2845.984130859375
